<?xml version="1.0" encoding="utf-8"?>
<!-- Generator: Adobe Illustrator 15.0.0, SVG Export Plug-In . SVG Version: 6.00 Build 0)  -->
<!DOCTYPE svg PUBLIC "-//W3C//DTD SVG 1.1//EN" "http://www.w3.org/Graphics/SVG/1.1/DTD/svg11.dtd">
<svg version="1.1" id="Capa_1" xmlns="http://www.w3.org/2000/svg" xmlns:xlink="http://www.w3.org/1999/xlink" x="0px" y="0px"
	 stroke="#78b63f" width="800px" height="800px" viewBox="0 0 800 800" enable-background="new 0 0 800 800" xml:space="preserve">
<g>
	<path fill="#222221" d="M400-2.313C177.809-2.313-2.313,177.809-2.313,400c0,222.19,180.122,402.313,402.313,402.313
		c222.19,0,402.313-180.123,402.313-402.313C802.313,177.809,622.19-2.313,400-2.313z M400,756.835
		C202.926,756.835,43.166,597.074,43.166,400C43.166,202.926,202.926,43.166,400,43.166c197.074,0,356.835,159.761,356.835,356.834
		C756.835,597.074,597.074,756.835,400,756.835z"/>
	<path fill="#222221" d="M435.717,364.283c-12.999-12.999-31.323-17.425-47.953-13.292l26.25-26.25L202.133,202.133l122.608,211.881
		l26.25-26.25c-4.135,16.629,0.292,34.954,13.292,47.953c13.001,13.001,31.321,17.427,47.95,13.293l-26.248,26.25l211.881,122.606
		L475.26,385.985l-26.25,26.248C453.144,395.605,448.716,377.284,435.717,364.283z M383.667,416.333
		c-9.02-9.02-9.02-23.646,0-32.667c9.02-9.019,23.647-9.02,32.667,0c9.022,9.023,9.018,23.647,0,32.667
		C407.313,425.354,392.689,425.355,383.667,416.333z M562.082,562.082l-154.857-89.607l65.247-65.25L562.082,562.082z"/>
</g>
</svg>
